<svg width="75" height="72" viewBox="0 0 75 72" fill="none" xmlns="http://www.w3.org/2000/svg">
<g clip-path="url(#clip0_52_2366)">
<path fill-rule="evenodd" clip-rule="evenodd" d="M47.9733 23.9621C48.0497 24.4127 48.1178 24.8005 48.1549 25.0053C48.3835 26.2507 48.5758 29.413 49.4575 31.5637C50.1296 33.2047 51.2037 34.2635 52.8374 33.8822C54.3222 33.5356 55.2464 32.0553 55.6913 30.0088C56.6486 25.6043 55.4942 18.5679 54.5965 16.5323C54.4983 16.3101 54.2396 16.2094 54.0174 16.3075C53.7962 16.4051 53.6955 16.6638 53.7937 16.886C54.6546 18.8397 55.7526 25.5942 54.8337 29.8226C54.4742 31.4753 53.8368 32.7475 52.6373 33.0273C51.4536 33.304 50.7571 32.4208 50.2699 31.2312C49.4114 29.1383 49.2404 26.0595 49.0185 24.8467C48.879 24.0865 48.4288 21.1721 48.33 20.9316C48.2066 20.6304 47.9511 20.6386 47.8675 20.6476C47.8026 20.6545 47.4816 20.7097 47.4671 21.1085C47.2561 26.7945 42.9968 35.3736 36.7318 41.1166C30.5219 46.8091 22.3116 49.7125 14.0863 44.0656C13.8863 43.9288 13.6128 43.9797 13.4755 44.1788C13.3387 44.3788 13.3896 44.6523 13.5897 44.7891C22.2081 50.7057 30.8191 47.7277 37.3247 41.7642C42.8077 36.7383 46.7734 29.5895 47.9733 23.9621Z" fill="#0D121F"/>
<path fill-rule="evenodd" clip-rule="evenodd" d="M14.3049 44.6629C15.3364 44.5779 16.3661 44.5262 17.3916 44.361C20.1238 43.9215 22.8697 42.8862 25.0856 41.2122C25.2792 41.0652 25.317 40.7901 25.1715 40.5969C25.0246 40.4033 24.7494 40.3656 24.5563 40.5111C22.4542 42.1011 19.8446 43.0771 17.2524 43.4939C16.0785 43.6823 14.8976 43.7203 13.7162 43.833C13.6573 43.8393 13.1425 43.8726 13.0357 43.9095C12.7867 43.994 12.7375 44.188 12.7263 44.2806C12.7159 44.358 12.7221 44.453 12.7723 44.5592C12.814 44.646 12.9319 44.7923 13.1312 44.9543C13.7677 45.4754 15.4268 46.4776 15.6818 46.6709C18.6043 48.8866 20.9513 51.4386 23.4894 54.0636C23.6585 54.2372 23.9368 54.2422 24.111 54.0741C24.2851 53.906 24.2892 53.6281 24.121 53.454C21.551 50.7955 19.1707 48.2146 16.2123 45.9724C16.0375 45.8389 15.0289 45.1531 14.3049 44.6629Z" fill="#0D121F"/>
</g>
<defs>
<clipPath id="clip0_52_2366">
<rect width="57.0685" height="50.03" fill="white" transform="translate(74.1775 45.3682) rotate(153.036)"/>
</clipPath>
</defs>
</svg>
