<svg width="27" height="27" viewBox="0 0 27 27" fill="none" xmlns="http://www.w3.org/2000/svg">
<path d="M13.5 2.25C7.30125 2.25 2.25 7.30125 2.25 13.5C2.25 19.6988 7.30125 24.75 13.5 24.75C19.6988 24.75 24.75 19.6988 24.75 13.5C24.75 7.30125 19.6988 2.25 13.5 2.25ZM17.28 16.0875C17.6062 16.4138 17.6062 16.9537 17.28 17.28C17.1112 17.4487 16.8975 17.5275 16.6837 17.5275C16.47 17.5275 16.2563 17.4487 16.0875 17.28L13.5 14.6925L10.9125 17.28C10.7437 17.4487 10.53 17.5275 10.3163 17.5275C10.1025 17.5275 9.88875 17.4487 9.72 17.28C9.39375 16.9537 9.39375 16.4138 9.72 16.0875L12.3075 13.5L9.72 10.9125C9.39375 10.5862 9.39375 10.0463 9.72 9.72C10.0463 9.39375 10.5862 9.39375 10.9125 9.72L13.5 12.3075L16.0875 9.72C16.4138 9.39375 16.9537 9.39375 17.28 9.72C17.6062 10.0463 17.6062 10.5862 17.28 10.9125L14.6925 13.5L17.28 16.0875Z" fill="#FF4423"/>
</svg>
