<svg width="23" height="23" viewBox="0 0 23 23" fill="none" xmlns="http://www.w3.org/2000/svg">
<path d="M11.5 0.25C5.30125 0.25 0.25 5.30125 0.25 11.5C0.25 17.6988 5.30125 22.75 11.5 22.75C17.6988 22.75 22.75 17.6988 22.75 11.5C22.75 5.30125 17.6988 0.25 11.5 0.25ZM16.8775 8.9125L10.4987 15.2912C10.3412 15.4487 10.1275 15.5388 9.9025 15.5388C9.6775 15.5388 9.46375 15.4487 9.30625 15.2912L6.1225 12.1075C5.79625 11.7812 5.79625 11.2412 6.1225 10.915C6.44875 10.5887 6.98875 10.5887 7.315 10.915L9.9025 13.5025L15.685 7.72C16.0113 7.39375 16.5513 7.39375 16.8775 7.72C17.2038 8.04625 17.2038 8.575 16.8775 8.9125Z" fill="#9CD323"/>
</svg>
